<svg width="1120" height="640" viewBox="0 0 1120 640" fill="none" xmlns="http://www.w3.org/2000/svg">
  <rect width="1120" height="640" rx="24" fill="#FFFFFF"></rect>
  <rect x="24" y="24" width="1072" height="592" rx="20" fill="#FAFBFC" stroke="#E6EAF0"></rect>
  
  <!-- Header -->
  <text x="56" y="86" font-family="Inter, system-ui, -apple-system, Segoe UI, Roboto" font-weight="700" font-size="20" fill="#0C162B">
    Automation Ops Console
  </text>
  <text x="56" y="112" font-family="Inter, system-ui" font-size="13" fill="#5A6B85">
    TradingView → API Gateway → Lambda jobs → Alpaca • Audit, Flags, Kill-switch
  </text>

  <!-- Mode pills -->
  <g>
    <rect x="720" y="66" rx="18" width="110" height="36" fill="#0C162B"></rect>
    <text x="740" y="89" font-family="Inter" font-weight="600" font-size="14" fill="#FFFFFF">Simulate</text>

    <rect x="836" y="66" rx="18" width="96" height="36" fill="#EEF3FA" stroke="#D9E2EE"></rect>
    <text x="858" y="89" font-family="Inter" font-weight="600" font-size="14" fill="#0C162B">Paper</text>

    <rect x="936" y="66" rx="18" width="96" height="36" fill="#FFFFFF" stroke="#D9E2EE"></rect>
    <text x="965" y="89" font-family="Inter" font-weight="600" font-size="14" fill="#0C162B">Live</text>
  </g>

  <!-- Flags + kill switch -->
  <rect x="56" y="140" width="1008" height="64" rx="14" fill="#FFFFFF" stroke="#E6EAF0"></rect>
  <text x="72" y="166" font-family="Inter" font-size="13" fill="#5A6B85">Feature flags</text>
  <rect x="72" y="176" rx="10" width="140" height="24" fill="#EEF3FA" stroke="#D9E2EE"></rect>
  <text x="84" y="192" font-family="Inter" font-size="12" font-weight="600" fill="#0C162B">rate-limit guard</text>
  <rect x="220" y="176" rx="10" width="126" height="24" fill="#EEF3FA" stroke="#D9E2EE"></rect>
  <text x="232" y="192" font-family="Inter" font-size="12" font-weight="600" fill="#0C162B">idempotency</text>
  <rect x="354" y="176" rx="10" width="150" height="24" fill="#EEF3FA" stroke="#D9E2EE"></rect>
  <text x="366" y="192" font-family="Inter" font-size="12" font-weight="600" fill="#0C162B">retry + backoff</text>

  <rect x="860" y="156" rx="16" width="180" height="32" fill="#FFEDEA" stroke="#FFD2CA"></rect>
  <circle cx="880" cy="172" r="6" fill="#E64B2E"></circle>
  <text x="894" y="175" font-family="Inter" font-size="13" font-weight="700" fill="#9A2715">KILL SWITCH: ON</text>

  <!-- Grid: recent jobs -->
  <rect x="56" y="224" width="664" height="360" rx="14" fill="#FFFFFF" stroke="#E6EAF0"></rect>
  <text x="72" y="252" font-family="Inter" font-weight="700" font-size="14" fill="#0C162B">Recent jobs</text>

  <!-- Table header -->
  <g fill="#5A6B85" font-family="Inter" font-size="12">
    <text x="72" y="284">Time</text>
    <text x="168" y="284">Alert</text>
    <text x="330" y="284">Mode</text>
    <text x="408" y="284">Result</text>
    <text x="504" y="284">Duration</text>
    <text x="592" y="284">Actions</text>
  </g>
  <line x1="56" y1="292" x2="720" y2="292" stroke="#EEF3FA"></line>

  <!-- Row template (repeat 5) -->
  <!-- Row 1 -->
  <g>
    <text x="72" y="320" font-family="Inter" font-size="13" fill="#0C162B">10:04:12</text>
    <text x="168" y="320" font-family="Inter" font-size="13" fill="#0C162B">TV: RSI-cross</text>
    <rect x="324" y="304" rx="12" width="78" height="24" fill="#EEF3FA" stroke="#D9E2EE"></rect>
    <text x="346" y="320" font-family="Inter" font-weight="600" font-size="12" fill="#0C162B">Simulate</text>
    <rect x="402" y="304" rx="12" width="86" height="24" fill="#EAF7EE" stroke="#CDEBD6"></rect>
    <text x="430" y="320" font-family="Inter" font-weight="700" font-size="12" fill="#1E7D3F">Success</text>
    <text x="508" y="320" font-family="Inter" font-size="13" fill="#0C162B">820ms</text>
    <rect x="584" y="304" rx="10" width="60" height="24" fill="#0C162B"></rect>
    <text x="598" y="320" font-family="Inter" font-weight="700" font-size="12" fill="#FFFFFF">Replay</text>
  </g>
  <line x1="56" y1="336" x2="720" y2="336" stroke="#F2F5F9"></line>

  <!-- Row 2 -->
  <g>
    <text x="72" y="364" font-family="Inter" font-size="13" fill="#0C162B">09:58:43</text>
    <text x="168" y="364" font-family="Inter" font-size="13" fill="#0C162B">TV: MACD-flip</text>
    <rect x="324" y="348" rx="12" width="60" height="24" fill="#FFFFFF" stroke="#D9E2EE"></rect>
    <text x="343" y="364" font-family="Inter" font-weight="600" font-size="12" fill="#0C162B">Paper</text>
    <rect x="402" y="348" rx="12" width="76" height="24" fill="#FFF1F0" stroke="#FFD7D2"></rect>
    <text x="430" y="364" font-family="Inter" font-weight="700" font-size="12" fill="#C63B2B">Failed</text>
    <text x="508" y="364" font-family="Inter" font-size="13" fill="#0C162B">2.1s</text>
    <rect x="584" y="348" rx="10" width="60" height="24" fill="#0C162B"></rect>
    <text x="598" y="364" font-family="Inter" font-weight="700" font-size="12" fill="#FFFFFF">Replay</text>
  </g>
  <line x1="56" y1="380" x2="720" y2="380" stroke="#F2F5F9"></line>

  <!-- Row 3 -->
  <g>
    <text x="72" y="408" font-family="Inter" font-size="13" fill="#0C162B">09:41:02</text>
    <text x="168" y="408" font-family="Inter" font-size="13" fill="#0C162B">TV: MA-cross</text>
    <rect x="324" y="392" rx="12" width="60" height="24" fill="#FFFFFF" stroke="#D9E2EE"></rect>
    <text x="343" y="408" font-family="Inter" font-weight="600" font-size="12" fill="#0C162B">Paper</text>
    <rect x="402" y="392" rx="12" width="86" height="24" fill="#EAF7EE" stroke="#CDEBD6"></rect>
    <text x="430" y="408" font-family="Inter" font-weight="700" font-size="12" fill="#1E7D3F">Success</text>
    <text x="508" y="408" font-family="Inter" font-size="13" fill="#0C162B">1.4s</text>
    <rect x="584" y="392" rx="10" width="60" height="24" fill="#0C162B"></rect>
    <text x="598" y="408" font-family="Inter" font-weight="700" font-size="12" fill="#FFFFFF">Replay</text>
  </g>
  <line x1="56" y1="424" x2="720" y2="424" stroke="#F2F5F9"></line>

  <!-- Row 4 -->
  <g>
    <text x="72" y="452" font-family="Inter" font-size="13" fill="#0C162B">09:12:27</text>
    <text x="168" y="452" font-family="Inter" font-size="13" fill="#0C162B">TV: Breakout</text>
    <rect x="324" y="436" rx="12" width="78" height="24" fill="#EEF3FA" stroke="#D9E2EE"></rect>
    <text x="346" y="452" font-family="Inter" font-weight="600" font-size="12" fill="#0C162B">Simulate</text>
    <rect x="402" y="436" rx="12" width="96" height="24" fill="#FFF8E6" stroke="#FFE7B8"></rect>
    <text x="430" y="452" font-family="Inter" font-weight="700" font-size="12" fill="#7C5A00">Cancelled</text>
    <text x="508" y="452" font-family="Inter" font-size="13" fill="#0C162B">—</text>
    <rect x="584" y="436" rx="10" width="60" height="24" fill="#0C162B"></rect>
    <text x="598" y="452" font-family="Inter" font-weight="700" font-size="12" fill="#FFFFFF">Replay</text>
  </g>

  <!-- Logs / alerts panel -->
  <rect x="744" y="224" width="320" height="360" rx="14" fill="#FFFFFF" stroke="#E6EAF0"></rect>
  <text x="760" y="252" font-family="Inter" font-weight="700" font-size="14" fill="#0C162B">Alerts &amp; Logs</text>

  <rect x="760" y="268" width="288" height="96" rx="10" fill="#FFF8E6" stroke="#FFE7B8"></rect>
  <text x="776" y="292" font-family="Inter" font-size="12" fill="#7C5A00">Rate-limit approaching • retries enabled</text>
  <text x="776" y="312" font-family="Inter" font-size="12" fill="#7C5A00">Kill-switch available for immediate rollback</text>

  <rect x="760" y="372" width="288" height="196" rx="10" fill="#FAFBFC" stroke="#E6EAF0"></rect>
  <text x="776" y="396" font-family="Inter" font-size="12" fill="#5A6B85">{ }</text>
  <text x="792" y="396" font-family="Inter" font-size="12" fill="#5A6B85">POST /jobs 200 • 820ms</text>
  <text x="792" y="416" font-family="Inter" font-size="12" fill="#5A6B85">idempotency_key=abc123 • retries=0</text>
  <text x="792" y="436" font-family="Inter" font-size="12" fill="#5A6B85">alpaca: order created • qty=1 • symbol=TEST</text>
</svg>
